<svg width="61" height="61" viewBox="0 0 61 61" fill="none" xmlns="http://www.w3.org/2000/svg">
<path d="M30.4998 0C19.2878 0 10.1665 9.1175 10.1665 20.3235V40.6777C10.1665 51.8834 19.2878 61 30.4998 61C41.7119 61 50.8332 51.8837 50.8332 40.6777V20.3235C50.8332 9.1175 41.7116 0 30.4998 0ZM48.5739 40.6777C48.5739 50.6379 40.4659 58.7408 30.4998 58.7408C20.5338 58.7408 12.4257 50.6379 12.4257 40.6777V20.3235C12.4257 10.3632 20.5338 2.25923 30.4998 2.25923C40.4659 2.25923 48.5739 10.3629 48.5739 20.3235V40.6777Z" fill="white"/>
<path d="M30.4999 6.77768C29.876 6.77768 29.3701 7.28298 29.3701 7.90744V18.137C29.3701 18.7615 29.876 19.2668 30.4999 19.2668C31.1238 19.2668 31.6296 18.7615 31.6296 18.137V7.90744C31.6293 7.28298 31.1238 6.77768 30.4999 6.77768Z" fill="white"/>
</svg>
