<svg width="62" height="62" viewBox="0 0 62 62" fill="none" xmlns="http://www.w3.org/2000/svg">
<g clip-path="url(#clip0)">
<path d="M62 12.4684C58.0999 12.6481 58.1851 12.6335 57.7442 12.6704L60.054 6.07408C60.054 6.07408 52.8442 8.72632 51.0164 9.20076C46.2162 4.88632 39.0811 4.6957 33.98 7.83089C29.8028 10.3989 27.5606 14.8089 28.3085 19.9634C20.1787 18.8353 13.3288 14.9816 7.92076 8.48508L6.21031 6.43074L4.9322 8.77788C3.31683 11.7437 2.78043 15.1348 3.42137 18.3263C3.68437 19.6356 4.13138 20.8844 4.75056 22.0537L3.28325 21.4852L3.10918 23.9368C2.93274 26.4273 3.76195 29.3345 5.32765 31.7128C5.76851 32.3826 6.33613 33.1182 7.0556 33.8438L6.29735 33.7275L7.22258 36.5367C8.43872 40.2277 10.9647 43.0834 14.2427 44.6708C10.9689 46.0601 8.32425 46.9465 3.97717 48.3765L0 49.6839L3.67349 51.6924C5.07411 52.4582 10.0233 55.0158 14.9135 55.7831C25.7835 57.4878 38.022 56.0995 46.2611 48.6792C53.2008 42.4292 55.478 33.5387 55.0049 24.2869C54.9335 22.8862 55.3171 21.5495 56.0853 20.5235C57.6241 18.4692 61.9905 12.4821 62 12.4684ZM53.1805 18.3476C51.9047 20.051 51.2657 22.2264 51.3802 24.4723C51.8574 33.8046 49.3183 41.0418 43.8326 45.982C37.4246 51.7534 27.0886 54.0187 15.4759 52.1971C13.3728 51.8674 11.1993 51.129 9.40037 50.3916C13.045 49.1376 15.8595 48.0198 20.4048 45.8685L26.7499 42.8653L19.7444 42.4169C16.3888 42.2021 13.5947 40.5759 11.8771 37.9355C12.7891 37.8825 13.6685 37.7349 14.544 37.4908L21.2255 35.6299L14.4882 33.98C11.2144 33.1783 9.34834 31.2195 8.35925 29.7172C7.70979 28.73 7.28549 27.7186 7.031 26.7863C7.70648 26.9675 8.49406 27.0966 9.76413 27.2224L16 27.8393L11.0593 23.9851C7.4993 21.2084 6.07266 17.0369 7.11851 13.0266C18.2289 24.5503 31.2739 23.6842 32.587 23.9889C32.298 21.1815 32.2904 21.1749 32.2147 20.9076C30.5331 14.9631 34.2184 11.9448 35.8806 10.923C39.3526 8.78923 44.8638 8.46758 48.6811 11.9831C49.5056 12.7418 50.6205 13.0403 51.664 12.7811C52.6006 12.5483 53.3692 12.3019 54.1218 12.0337L52.5552 16.5075L54.5551 16.509C54.1776 17.0151 53.7249 17.621 53.1805 18.3476Z" fill="white"/>
</g>
<defs>
<clipPath id="clip0">
<rect width="62" height="62" fill="white"/>
</clipPath>
</defs>
</svg>
